<svg width="231" height="47" viewBox="0 0 231 47" fill="none" xmlns="http://www.w3.org/2000/svg">
<g clip-path="url(#clip0)">
<circle cx="23" cy="24" r="22" fill="white"/>
<path d="M22.8751 38.3492C27.0752 29.2151 21.6572 14.8659 10.5713 14.4287C26.0978 11.6222 31.9936 10.7751 34.242 14.7254C36.4904 18.6757 33.9544 30.1363 22.8751 38.3492Z" fill="#00387A"/>
<path d="M17.8786 40.1135C22.039 32.2176 15.2243 20.8304 7.77644 20.8304C15.4248 19.8022 18.3205 19.1909 21.5947 23.7502C24.869 28.3094 22.5013 34.9455 17.8786 40.1135Z" fill="#00387A"/>
<path d="M64.5488 28H63.2085V17.3359H64.5488V28ZM73.8652 28H72.5176L68.2476 19.7822V28H66.8999V17.3359H68.2476L72.5322 25.5903V17.3359H73.8652V28ZM80.8452 25.3047C80.8452 24.7725 80.7012 24.3647 80.4131 24.0815C80.125 23.7983 79.605 23.5225 78.853 23.2539C78.1011 22.9854 77.5249 22.7046 77.1245 22.4116C76.729 22.1138 76.4312 21.7769 76.231 21.4009C76.0356 21.02 75.938 20.5854 75.938 20.0972C75.938 19.2524 76.2188 18.5566 76.7803 18.0098C77.3467 17.4629 78.0864 17.1895 78.9995 17.1895C79.6245 17.1895 80.1812 17.3311 80.6694 17.6143C81.1577 17.8926 81.5337 18.2808 81.7974 18.7788C82.061 19.2769 82.1929 19.8237 82.1929 20.4194H80.8452C80.8452 19.7603 80.6865 19.25 80.3691 18.8887C80.0518 18.5273 79.5952 18.3467 78.9995 18.3467C78.4575 18.3467 78.0376 18.498 77.7397 18.8008C77.4419 19.1035 77.293 19.5283 77.293 20.0752C77.293 20.5244 77.4541 20.9004 77.7764 21.2031C78.0986 21.5059 78.5967 21.7769 79.2705 22.0161C80.3203 22.3628 81.0698 22.79 81.519 23.2979C81.9731 23.8057 82.2002 24.4697 82.2002 25.29C82.2002 26.1543 81.9194 26.8477 81.3579 27.3701C80.7964 27.8877 80.0322 28.1465 79.0654 28.1465C78.4453 28.1465 77.8716 28.0122 77.3442 27.7437C76.8218 27.4702 76.4092 27.0894 76.1064 26.6011C75.8086 26.1079 75.6597 25.5439 75.6597 24.9092H77.0073C77.0073 25.5684 77.1904 26.0811 77.5566 26.4473C77.9277 26.8135 78.4307 26.9966 79.0654 26.9966C79.6562 26.9966 80.1006 26.8452 80.3984 26.5425C80.6963 26.2397 80.8452 25.8271 80.8452 25.3047ZM90.1982 18.4932H87.3931V28H86.0527V18.4932H83.2549V17.3359H90.1982V18.4932ZM93.1719 28H91.8315V17.3359H93.1719V28ZM101.536 18.4932H98.731V28H97.3906V18.4932H94.5928V17.3359H101.536V18.4932ZM109.468 17.3359V24.9165C109.458 25.9272 109.166 26.7183 108.589 27.2896C108.013 27.8608 107.21 28.1465 106.18 28.1465C105.125 28.1465 104.319 27.8682 103.763 27.3115C103.206 26.75 102.923 25.9517 102.913 24.9165V17.3359H104.246V24.8652C104.246 25.583 104.397 26.1201 104.7 26.4766C105.008 26.8281 105.501 27.0039 106.18 27.0039C106.863 27.0039 107.356 26.8281 107.659 26.4766C107.967 26.1201 108.121 25.583 108.121 24.8652V17.3359H109.468ZM117.767 18.4932H114.961V28H113.621V18.4932H110.823V17.3359H117.767V18.4932ZM126.072 23.6055C126.072 25.0605 125.762 26.1812 125.142 26.9673C124.522 27.7534 123.641 28.1465 122.498 28.1465C121.399 28.1465 120.53 27.7656 119.891 27.0039C119.256 26.2373 118.926 25.1558 118.902 23.7593V21.7524C118.902 20.3267 119.217 19.2109 119.847 18.4053C120.477 17.5947 121.355 17.1895 122.483 17.1895C123.606 17.1895 124.48 17.5776 125.105 18.354C125.735 19.1255 126.058 20.229 126.072 21.6646V23.6055ZM124.732 21.7378C124.732 20.6099 124.546 19.7725 124.175 19.2256C123.809 18.6738 123.245 18.3979 122.483 18.3979C121.746 18.3979 121.187 18.6763 120.806 19.2329C120.43 19.7896 120.24 20.6099 120.235 21.6938V23.6055C120.235 24.6943 120.423 25.5244 120.799 26.0957C121.18 26.667 121.746 26.9526 122.498 26.9526C123.25 26.9526 123.807 26.689 124.168 26.1616C124.529 25.6343 124.717 24.8262 124.732 23.7373V21.7378ZM131.587 28V17.3359H134.129C135.374 17.3359 136.341 17.7266 137.029 18.5078C137.718 19.2842 138.062 20.3779 138.062 21.7891V23.5762C138.062 24.9873 137.713 26.0786 137.015 26.8501C136.316 27.6167 135.303 28 133.975 28H131.587ZM132.928 18.4932V26.8501H134.004C134.947 26.8501 135.635 26.5815 136.07 26.0444C136.504 25.5024 136.727 24.7017 136.736 23.6421V21.7524C136.736 20.6294 136.519 19.8066 136.084 19.2842C135.655 18.7568 135.003 18.4932 134.129 18.4932H132.928ZM145.269 23.0708H141.497V26.8501H145.892V28H140.157V17.3359H145.818V18.4932H141.497V21.9209H145.269V23.0708ZM155.999 23.2905H152.396V28H151.055V17.3359H156.607V18.4932H152.396V22.1406H155.999V23.2905ZM159.661 28H158.321V17.3359H159.661V28ZM168.978 28H167.63L163.36 19.7822V28H162.012V17.3359H163.36L167.645 25.5903V17.3359H168.978V28ZM176.404 25.2168H172.801L171.973 28H170.596L174.031 17.3359H175.181L178.624 28H177.247L176.404 25.2168ZM173.152 24.0596H176.06L174.603 19.2109L173.152 24.0596ZM187.039 28H185.691L181.421 19.7822V28H180.074V17.3359H181.421L185.706 25.5903V17.3359H187.039V28ZM196.048 24.6162C195.989 25.7588 195.667 26.6328 195.081 27.2383C194.5 27.8438 193.677 28.1465 192.613 28.1465C191.543 28.1465 190.694 27.7412 190.064 26.9307C189.434 26.1152 189.119 25.0117 189.119 23.6201V21.6865C189.119 20.2998 189.441 19.2036 190.086 18.3979C190.735 17.5923 191.619 17.1895 192.737 17.1895C193.768 17.1895 194.563 17.4995 195.125 18.1196C195.691 18.7349 195.999 19.6162 196.048 20.7637H194.693C194.634 19.8945 194.451 19.2744 194.144 18.9033C193.836 18.5322 193.367 18.3467 192.737 18.3467C192.01 18.3467 191.451 18.6323 191.06 19.2036C190.669 19.77 190.474 20.6025 190.474 21.7012V23.6567C190.474 24.7358 190.655 25.5635 191.016 26.1396C191.382 26.7158 191.915 27.0039 192.613 27.0039C193.311 27.0039 193.814 26.8306 194.122 26.4839C194.429 26.1372 194.62 25.5146 194.693 24.6162H196.048ZM193.038 28.0659L192.964 28.4468C193.257 28.5103 193.482 28.6519 193.638 28.8716C193.794 29.0913 193.873 29.3721 193.873 29.7139C193.873 30.1826 193.709 30.5562 193.382 30.8345C193.06 31.1128 192.596 31.252 191.99 31.252L191.946 30.4683C192.571 30.4683 192.884 30.2266 192.884 29.7432C192.884 29.5234 192.818 29.3623 192.686 29.2598C192.559 29.1621 192.303 29.0913 191.917 29.0474L192.122 28.0659H193.038ZM202.845 25.2168H199.241L198.414 28H197.037L200.472 17.3359H201.622L205.064 28H203.687L202.845 25.2168ZM199.593 24.0596H202.5L201.043 19.2109L199.593 24.0596ZM211.172 25.3047C211.172 24.7725 211.028 24.3647 210.74 24.0815C210.452 23.7983 209.932 23.5225 209.18 23.2539C208.428 22.9854 207.852 22.7046 207.452 22.4116C207.056 22.1138 206.758 21.7769 206.558 21.4009C206.363 21.02 206.265 20.5854 206.265 20.0972C206.265 19.2524 206.546 18.5566 207.107 18.0098C207.674 17.4629 208.414 17.1895 209.327 17.1895C209.952 17.1895 210.508 17.3311 210.997 17.6143C211.485 17.8926 211.861 18.2808 212.125 18.7788C212.388 19.2769 212.52 19.8237 212.52 20.4194H211.172C211.172 19.7603 211.014 19.25 210.696 18.8887C210.379 18.5273 209.922 18.3467 209.327 18.3467C208.785 18.3467 208.365 18.498 208.067 18.8008C207.769 19.1035 207.62 19.5283 207.62 20.0752C207.62 20.5244 207.781 20.9004 208.104 21.2031C208.426 21.5059 208.924 21.7769 209.598 22.0161C210.647 22.3628 211.397 22.79 211.846 23.2979C212.3 23.8057 212.527 24.4697 212.527 25.29C212.527 26.1543 212.247 26.8477 211.685 27.3701C211.124 27.8877 210.359 28.1465 209.393 28.1465C208.772 28.1465 208.199 28.0122 207.671 27.7437C207.149 27.4702 206.736 27.0894 206.434 26.6011C206.136 26.1079 205.987 25.5439 205.987 24.9092H207.334C207.334 25.5684 207.518 26.0811 207.884 26.4473C208.255 26.8135 208.758 26.9966 209.393 26.9966C209.983 26.9966 210.428 26.8452 210.726 26.5425C211.023 26.2397 211.172 25.8271 211.172 25.3047Z" fill="white"/>
</g>
<defs>
<clipPath id="clip0">
<rect width="231" height="47" fill="white"/>
</clipPath>
</defs>
</svg>
